<svg width="86" height="58" viewBox="0 0 375 252" fill="none" xmlns="http://www.w3.org/2000/svg">
  <path fill-rule="evenodd" clip-rule="evenodd" d="M375 251.935H-9.15527e-05V145.833H375V251.935ZM109.06 220.081H103.018V198.943C103.018 187.91 95.3097 182.858 86.8722 182.858C79.4763 182.858 74.1638 186.673 71.5597 192.86C69.268 186.054 63.018 182.858 56.2472 182.858C49.6847 182.858 44.7889 185.848 41.9764 190.798V183.786H22.2889V193.891H28.5389V220.186H22.2889V230.29H50.8305V220.186H41.8722V203.996C41.8722 197.5 44.4764 192.963 50.9347 192.963C56.2472 192.963 58.9555 196.056 58.9555 204.099V230.29H78.643V220.186H72.393V203.996C72.393 197.5 74.9972 192.963 81.4555 192.963C86.768 192.963 89.4763 196.056 89.4763 204.099V230.186H109.06V220.081ZM140.107 182.858C123.232 182.858 114.899 194.097 114.899 207.708C114.899 222.556 124.899 231.321 139.378 231.321C154.378 231.321 165.211 221.937 165.211 207.089C165.211 194.097 156.982 182.858 140.107 182.858ZM128.752 206.772C128.752 214.814 132.502 221.001 139.793 221.001C146.773 221.001 151.356 215.537 151.356 206.565C151.356 197.182 146.252 192.954 139.898 192.954C133.023 192.954 128.752 198.007 128.752 206.772ZM207.288 212.965L217.913 213.996L214.996 230.287H174.059L172.705 223.276L198.537 193.888H183.851L181.767 201.107L172.08 200.076L173.746 183.783H214.892L215.934 190.795L189.892 220.183H205.101L207.288 212.965ZM241.875 230.292H227.813V213.588H241.875V230.292ZM227.813 200.487H241.875V183.783H227.813V200.487ZM263.747 230.183L284.06 159.345H270.83L250.518 230.183H263.747ZM311.354 159.345L291.041 230.183H277.812L298.125 159.345H311.354ZM356.148 222.35C356.773 222.35 357.397 222.248 358.127 222.041L358.439 229.155C355.94 230.497 352.919 231.321 350.002 231.321C343.752 231.321 340.315 227.712 339.689 222.041C336.981 226.784 332.19 231.321 324.585 231.321C317.814 231.321 310.106 227.712 310.106 218.019C310.106 206.574 321.252 203.893 331.981 203.893C334.586 203.893 337.294 203.996 339.689 204.305V202.759C339.689 198.015 339.586 192.344 331.981 192.344C329.169 192.344 326.981 192.551 324.794 193.685L323.231 198.943L312.502 197.809L314.168 187.086C322.398 183.786 326.565 182.858 334.273 182.858C344.376 182.858 352.919 188.014 352.919 198.634V218.741C352.919 221.422 353.961 222.35 356.148 222.35Z" fill="black" />
  <path fill-rule="evenodd" clip-rule="evenodd" d="M329.375 221.732C325.312 221.732 323.854 219.36 323.854 216.37C323.854 211.317 328.021 209.977 332.812 209.977C334.999 209.977 337.396 210.286 339.583 210.595C339.271 218.329 334.166 221.732 329.375 221.732Z" fill="black" />
  <path d="M80.9913 115.392H45.4862V101.561H54.0417V79.1741C54.0417 73.6606 53.0435 69.7156 51.0473 67.3391C49.1461 64.9626 46.3893 63.7743 42.777 63.7743C38.5944 63.7743 35.3148 65.0576 32.9383 67.6242C30.6568 70.1909 29.4211 73.5655 29.2309 77.7482V101.561H37.7864V115.392H2.28136V101.561H10.8368V31.2637H2.28136V17.2898H29.2309V60.9225C33.5087 53.5078 40.4005 49.8004 49.9066 49.8004C55.9904 49.8004 61.2663 51.6066 65.7341 55.2189C70.2019 58.8312 72.4358 64.4397 72.4358 72.0445V101.561H80.9913V115.392ZM164.272 115.392H136.609V105.553C132.332 112.968 125.44 116.675 115.934 116.675C109.85 116.675 104.574 114.869 100.106 111.257C95.6383 107.645 93.4044 102.036 93.4044 94.4312V64.915H84.849V51.0837H111.799V87.3017C111.799 92.9103 112.702 96.9028 114.508 99.2793C116.409 101.561 119.166 102.701 122.778 102.701C127.151 102.701 130.525 101.276 132.902 98.4238C135.374 95.572 136.609 91.9121 136.609 87.4443V64.915H126.2V51.0837H155.003V101.561H164.272V115.392ZM241.835 81.7407C241.835 91.2467 239.316 99.4694 234.278 106.409C229.335 113.348 222.015 116.818 212.319 116.818C202.528 116.818 195.636 113.111 191.644 105.696C191.454 107.312 191.216 108.928 190.931 110.544C190.741 112.16 190.503 113.776 190.218 115.392H171.824C172.489 112.065 173.059 108.738 173.535 105.411C174.01 102.084 174.248 98.804 174.248 95.572V31.2637H165.692V17.2898H192.642V63.3465C194.353 59.6392 196.919 56.4547 200.342 53.793C203.859 51.1313 208.517 49.8004 214.316 49.8004C222.396 49.8004 229.002 52.6047 234.136 58.2133C239.269 63.8218 241.835 71.6643 241.835 81.7407ZM222.728 83.3092C222.728 77.1303 221.398 72.4248 218.736 69.1927C216.074 65.9607 212.557 64.3447 208.184 64.3447C203.241 64.3447 199.391 66.1508 196.634 69.7631C193.973 73.3754 192.642 77.558 192.642 82.3111V83.8795C192.642 89.1079 193.925 93.5282 196.492 97.1405C199.153 100.658 202.908 102.416 207.756 102.416C211.939 102.416 215.456 100.895 218.308 97.8534C221.255 94.7164 222.728 89.8683 222.728 83.3092ZM306.826 95.7146C306.826 102.844 303.974 108.167 298.27 111.685C292.662 115.107 285.342 116.818 276.311 116.818C271.653 116.818 266.948 116.343 262.195 115.392C257.537 114.346 253.069 112.73 248.791 110.544L251.358 92.5776L265.617 94.1461V102.131C267.328 102.701 269.134 103.082 271.035 103.272C272.937 103.367 274.362 103.414 275.313 103.414C278.83 103.414 281.872 102.844 284.439 101.703C287.005 100.563 288.289 98.8515 288.289 96.5701C288.289 93.8133 286.34 92.0072 282.443 91.1517C278.545 90.2961 274.03 89.4406 268.896 88.585C263.763 87.7295 259.248 85.9709 255.35 83.3092C251.453 80.6475 249.504 76.1321 249.504 69.7631C249.504 61.8731 252.546 56.5972 258.63 53.9356C264.809 51.1788 271.178 49.8004 277.737 49.8004C286.292 49.8004 294.325 51.7492 301.835 55.6466L303.403 72.0445L289.144 73.613L288.004 64.6298C284.867 63.5842 281.492 63.0613 277.88 63.0613C275.503 63.0613 273.459 63.5842 271.748 64.6298C270.132 65.5804 269.324 67.1014 269.324 69.1927C269.324 71.9495 271.178 73.8032 274.885 74.7538C278.688 75.6093 283.06 76.4648 288.004 77.3204C293.042 78.1759 297.415 79.9345 301.122 82.5962C304.924 85.1629 306.826 89.5356 306.826 95.7146Z" fill="black" />
</svg>