<svg viewBox="0 0 118 83" fill="none"
  xmlns="http://www.w3.org/2000/svg">
  <path fill-rule="evenodd" clip-rule="evenodd" d="M92.3957 28.2494C93.3447 26.7285 93.8974 25.8427 94.8328 26.5359C103.99 33.3188 106.976 49.8502 100.329 62.8951C98.8418 65.8138 96.9624 68.3543 94.7694 70.5542C91.8845 69.0726 89.641 66.8606 88.5032 64.2452V75.4753C88.5002 75.4771 88.4973 75.479 88.4943 75.4808V64.2452C86.3871 69.0891 80.4871 72.549 73.7442 72.549C67.0013 72.549 61.1012 69.0891 58.994 64.2452V82.9997C58.9912 82.9998 58.9883 82.9998 58.9854 82.9999V64.2452C56.8782 69.0891 50.9782 72.549 44.2352 72.549C37.512 72.549 31.6267 69.1092 29.5036 64.2875V64.2451L29.4944 64.2664L29.4851 64.2452V64.2874C28.3758 66.8069 26.2392 68.9491 23.4925 70.4204C20.7068 66.4964 19.0798 61.779 19.0798 56.4904C19.0798 45.9039 25.5593 36.8011 34.8498 32.7469C25.9253 29.4378 17.533 23.9526 17.533 18.4452C17.533 12.6342 23.0385 13.7669 29.9164 15.182C30.0509 15.2097 30.1859 15.2375 30.3215 15.2653C32.1805 6.5492 40.0816 0 49.5539 0C60.406 0 69.2019 8.59801 69.2019 19.2032C69.2019 25.913 65.6761 31.8113 60.34 35.2452C65.217 36.8462 70.9852 38.0528 77.7873 37.2753C87.4534 36.1703 90.619 31.0968 92.3957 28.2494Z" fill="url(#paint0_linear_1379_11092)"/>
  <ellipse rx="5.2678" ry="5.18996" transform="matrix(0.998781 0.04937 -0.0500996 0.998744 41.6139 17.4679)" fill="black"/>
  <mask id="mask0_1379_11092" style="mask-type:alpha" maskUnits="userSpaceOnUse" x="6" y="8" width="30" height="66">
    <path d="M14.5857 31.1691C13.3526 33.5187 12.5108 35.924 11.9814 38.3357L19.2242 71.856C19.8458 73.0086 20.0258 73.3698 19.4104 72.718L19.2242 71.856C16.9534 67.6456 8.79004 52.8739 11.9814 38.3357L6.71411 13.9585L25.7091 8.79688C35.6492 16.3112 35.7252 19.8224 34.8374 32.7454C23.3159 35.6677 18.6987 23.3319 14.5857 31.1691Z" fill="#C4C4C4"/>
  </mask>
  <g mask="url(#mask0_1379_11092)">
    <path d="M94.8414 26.5427C92.1546 24.5517 92.625 35.5868 77.7958 37.2821C70.9937 38.0597 65.2255 36.853 60.3485 35.252C65.6846 31.8181 69.2104 25.9198 69.2104 19.21C69.2104 8.60484 60.4146 0.00683597 49.5624 0.00683597C40.0901 0.00683597 32.189 6.55604 30.33 15.2722C23.2645 13.8208 17.5415 12.5274 17.5415 18.452C17.5415 23.9594 25.9339 29.4447 34.8584 32.7537C25.5678 36.808 19.0883 45.9107 19.0883 56.4972C19.0883 70.8541 31.0787 81.0013 45.6888 82.4935C66.4341 84.6128 91.0443 81.1406 100.337 62.902C106.985 49.8571 103.999 33.3256 94.8414 26.5427Z" fill="#FF8A00"/>
  </g>
  <ellipse cx="43.3152" cy="16.1555" rx="1.49368" ry="1.46899" fill="white"/>
  <path fill-rule="evenodd" clip-rule="evenodd" d="M0 57.1016V64.249C2.10716 69.0929 8.00721 72.5528 14.7501 72.5528C21.4734 72.5528 27.3587 69.113 29.4817 64.2912V64.2491L29.491 64.2702L29.5002 64.249V64.2913C31.6232 69.113 37.5086 72.5528 44.2318 72.5528C50.9748 72.5528 56.8748 69.0929 58.982 64.2491V57.1016C56.8748 61.9454 50.9748 65.4053 44.2318 65.4053C37.5086 65.4053 31.6232 61.9655 29.5002 57.1438V57.1016L29.491 57.1228L29.4817 57.1016V57.1438C27.3587 61.9655 21.4734 65.4053 14.7501 65.4053C8.00721 65.4053 2.10716 61.9454 0 57.1016ZM58.9977 64.2491V57.1016C61.1049 61.9454 67.0049 65.4053 73.7478 65.4053C80.4907 65.4053 86.3908 61.9454 88.4979 57.1016V64.2491C86.3908 69.0929 80.4907 72.5528 73.7478 72.5528C67.0049 72.5528 61.1049 69.0929 58.9977 64.2491ZM88.4998 57.1016V64.2491C90.607 69.0929 96.507 72.5528 103.25 72.5528C109.993 72.5528 115.893 69.0929 118 64.2491V57.1016C115.893 61.9454 109.993 65.4053 103.25 65.4053C96.507 65.4053 90.607 61.9454 88.4998 57.1016Z" fill="url(#paint1_linear_1379_11092)"/>
  <defs>
    <linearGradient id="paint0_linear_1379_11092" x1="60.7297" y1="0" x2="60.7297" y2="94.9958" gradientUnits="userSpaceOnUse">
      <stop stop-color="#FFC000"/>
      <stop offset="1" stop-color="#FFD600"/>
    </linearGradient>
    <linearGradient id="paint1_linear_1379_11092" x1="63.481" y1="260.727" x2="56.2587" y2="25.7053" gradientUnits="userSpaceOnUse">
      <stop stop-color="#2F80ED"/>
      <stop offset="0.508287" stop-color="#2F80ED"/>
      <stop offset="1" stop-color="#2F80ED"/>
    </linearGradient>
  </defs>
</svg>
