<svg viewBox="0 0 141 40" fill="none" xmlns="http://www.w3.org/2000/svg">
<path fill-rule="evenodd" clip-rule="evenodd" d="M141 40H0V0H141V40ZM41.0086 27.9908H38.7369V20.0219C38.7369 15.8625 35.8386 13.9578 32.6661 13.9578C29.8852 13.9578 27.8877 15.396 26.9086 17.7284C26.0469 15.1628 23.6969 13.9578 21.1511 13.9578C18.6836 13.9578 16.8427 15.0851 15.7852 16.951V14.3076H8.38273V18.1171H10.7327V28.0301H8.38273V31.8392H19.1144V28.0301H15.7461V21.9267C15.7461 19.4777 16.7252 17.7673 19.1536 17.7673C21.1511 17.7673 22.1694 18.9335 22.1694 21.9655V31.8392H29.5719V28.0301H27.2219V21.9267C27.2219 19.4777 28.2011 17.7673 30.6294 17.7673C32.6269 17.7673 33.6452 18.9335 33.6452 21.9655V31.8003H41.0086V27.9908ZM52.6746 13.9578C46.3296 13.9578 43.1963 18.1949 43.1963 23.3261C43.1963 28.9237 46.9563 32.2279 52.4005 32.2279C58.0405 32.2279 62.1138 28.6905 62.1138 23.0928C62.1138 18.1949 59.0196 13.9578 52.6746 13.9578ZM48.4096 22.9745C48.4096 26.0062 49.8196 28.3385 52.5613 28.3385C55.1855 28.3385 56.9088 26.2787 56.9088 22.8964C56.9088 19.3589 54.9896 17.7652 52.6005 17.7652C50.0155 17.7652 48.4096 19.6699 48.4096 22.9745ZM77.9335 25.3124L81.9285 25.7011L80.8318 31.8426H65.4393L64.9301 29.1997L74.6431 18.1206H69.121L68.3376 20.8421L64.6951 20.4533L65.3218 14.3111H80.7926L81.1843 16.9544L71.3926 28.0335H77.111L77.9335 25.3124ZM90.9519 31.8436H85.6644V25.5463H90.9519V31.8436ZM85.6644 20.6084H90.9519V14.3111H85.6644V20.6084ZM99.1702 31.7994L106.808 5.09387H101.834L94.1961 31.7994H99.1702ZM117.069 5.09387L109.431 31.7994H104.457L112.095 5.09387H117.069ZM133.917 28.8481C134.152 28.8481 134.386 28.8096 134.661 28.7315L134.778 31.4137C133.839 31.9194 132.703 32.23 131.606 32.23C129.256 32.23 127.964 30.8695 127.728 28.7315C126.71 30.5196 124.909 32.23 122.049 32.23C119.503 32.23 116.605 30.8695 116.605 27.2154C116.605 22.9005 120.796 21.8899 124.83 21.8899C125.809 21.8899 126.828 21.9287 127.728 22.0454V21.4623C127.728 19.6741 127.689 17.5361 124.83 17.5361C123.773 17.5361 122.95 17.6139 122.128 18.0415L121.54 20.024L117.506 19.5964L118.132 15.5536C121.227 14.3097 122.794 13.9598 125.692 13.9598C129.491 13.9598 132.703 15.9035 132.703 19.9074V27.4875C132.703 28.4982 133.094 28.8481 133.917 28.8481Z" fill="white"/>
<path fill-rule="evenodd" clip-rule="evenodd" d="M123.845 28.6145C122.317 28.6145 121.769 27.72 121.769 26.5927C121.769 24.688 123.335 24.1826 125.137 24.1826C125.959 24.1826 126.86 24.2992 127.683 24.4159C127.565 27.3313 125.646 28.6145 123.845 28.6145Z" fill="white"/>
</svg>
