<svg width="32" height="25" viewBox="0 0 32 25" fill="none" xmlns="http://www.w3.org/2000/svg">
<path d="M2.24285 24.0381L2.24285 18.954L5.22068 18.954C7.56223 18.954 8.733 17.8076 8.733 15.5147L8.733 13.1222L7.43497 13.1222C5.39885 13.1222 3.71904 12.5241 2.39556 11.3278C1.02118 10.1315 0.333986 8.61129 0.333986 6.76705C0.333986 4.77329 1.02118 3.15335 2.39556 1.90724C3.71904 0.661136 5.39885 0.0380837 7.43497 0.0380838C9.522 0.038084 11.2273 0.661137 12.5507 1.90724C13.8742 3.20319 14.536 4.92282 14.536 7.06612L14.536 15.6643C14.536 21.2468 11.6854 24.0381 5.98423 24.0381L2.24285 24.0381ZM19.0409 24.0381L19.0409 18.954L22.0187 18.954C24.3603 18.954 25.531 17.8076 25.531 15.5147L25.531 13.1222L24.233 13.1222C22.1969 13.1222 20.5171 12.5241 19.1936 11.3278C17.8192 10.1315 17.132 8.61129 17.132 6.76706C17.132 4.77329 17.8192 3.15335 19.1936 1.90724C20.5171 0.661138 22.1969 0.0380851 24.233 0.0380853C26.32 0.0380855 28.0253 0.661138 29.3488 1.90725C30.6722 3.2032 31.334 4.92282 31.334 7.06612L31.334 15.6643C31.334 21.2468 28.4834 24.0381 22.7823 24.0381L19.0409 24.0381Z" fill="black"/>
</svg>
