<svg width="32" height="25" viewBox="0 0 32 25" fill="none" xmlns="http://www.w3.org/2000/svg">
<path d="M29.4251 0.0380885L29.4251 5.1222L26.4473 5.1222C24.1057 5.1222 22.935 6.26862 22.935 8.56145L22.935 10.954L24.233 10.954C26.2691 10.954 27.9489 11.5521 29.2724 12.7484C30.6468 13.9446 31.334 15.4649 31.334 17.3091C31.334 19.3029 30.6468 20.9228 29.2724 22.1689C27.9489 23.415 26.2691 24.0381 24.233 24.0381C22.146 24.0381 20.4407 23.415 19.1172 22.1689C17.7938 20.873 17.132 19.1534 17.132 17.0101L17.132 8.41192C17.132 2.82936 19.9826 0.0380877 25.6837 0.0380882L29.4251 0.0380885ZM12.6271 0.038087L12.6271 5.1222L9.64926 5.1222C7.30771 5.1222 6.13694 6.26862 6.13694 8.56145L6.13694 10.954L7.43497 10.954C9.47109 10.954 11.1509 11.5521 12.4744 12.7484C13.8488 13.9446 14.536 15.4649 14.536 17.3091C14.536 19.3029 13.8488 20.9228 12.4744 22.1689C11.1509 23.415 9.47109 24.0381 7.43497 24.0381C5.34794 24.0381 3.64269 23.415 2.3192 22.1689C0.995723 20.873 0.333983 19.1534 0.333983 17.01L0.333984 8.41191C0.333984 2.82936 3.18456 0.0380862 8.88571 0.0380867L12.6271 0.038087Z" fill="black"/>
</svg>
