<svg width="24" height="24" viewBox="0 0 24 24" fill="none"
  xmlns="http://www.w3.org/2000/svg">
  <g clip-path="url(#clip0_1402_10934)">
    <path fill-rule="evenodd" clip-rule="evenodd" d="M5.76467 19.8029H17.9655C19.088 19.8029 19.999 18.8919 19.999 17.7695V5.56863C19.999 4.44615 19.088 3.53516 17.9655 3.53516H5.76467C4.6422 3.53516 3.7312 4.44615 3.7312 5.56863V17.7695C3.7312 18.8919 4.6422 19.8029 5.76467 19.8029ZM15.9121 9.86747C15.9121 12.6208 13.8136 15.8011 9.97844 15.8011C8.80309 15.8011 7.70502 15.4555 6.78589 14.8698C6.94857 14.8901 7.11531 14.8983 7.28206 14.8983C8.25812 14.8983 9.15692 14.5648 9.8727 14.0036C8.9617 13.9873 8.18898 13.3854 7.92463 12.5557C8.05071 12.5801 8.18085 12.5923 8.31506 12.5923C8.50621 12.5923 8.68922 12.5679 8.8641 12.5191C7.91243 12.328 7.19258 11.482 7.19258 10.4734V10.445C7.4732 10.5995 7.79449 10.6931 8.13611 10.7053C7.57894 10.3311 7.20885 9.69259 7.20885 8.96867C7.20885 8.58638 7.31052 8.22849 7.48947 7.9194C8.51841 9.18015 10.0557 10.0139 11.7882 10.0993C11.7557 9.94474 11.7354 9.78613 11.7354 9.62345C11.7354 8.47251 12.6708 7.53711 13.8217 7.53711C14.4195 7.53711 14.9604 7.78926 15.3427 8.19595C15.8186 8.10241 16.2659 7.9316 16.6686 7.69165C16.51 8.17969 16.1805 8.59045 15.7494 8.84667C16.1724 8.7938 16.575 8.68399 16.9492 8.51724C16.6686 8.93614 16.3147 9.30623 15.908 9.59905C15.9121 9.68852 15.9121 9.778 15.9121 9.86747Z" fill="white"/>
  </g>
  <defs>
    <clipPath id="clip0_1402_10934">
      <rect width="16.2678" height="16.2678" fill="white" transform="translate(3.72339 3.5332)"/>
    </clipPath>
  </defs>
</svg>
