<svg width="24" height="24" viewBox="0 0 24 24" fill="none" xmlns="http://www.w3.org/2000/svg">
<g clip-path="url(#clip0_1402_10933)">
<path fill-rule="evenodd" clip-rule="evenodd" d="M20.2097 4.91279C21.0849 5.14979 21.7749 5.84384 22.0106 6.72411C22.4482 8.3323 22.4313 11.6841 22.4313 11.6841C22.4313 11.6841 22.4313 15.019 22.0106 16.6271C21.7749 17.5074 21.0849 18.2015 20.2097 18.4385C18.6108 18.8617 12.2152 18.8617 12.2152 18.8617C12.2152 18.8617 5.83639 18.8617 4.22066 18.4215C3.34547 18.1845 2.65542 17.4905 2.41979 16.6102C1.99902 15.019 1.99902 11.6672 1.99902 11.6672C1.99902 11.6672 1.99902 8.3323 2.41979 6.72411C2.65542 5.84384 3.3623 5.13286 4.22066 4.89586C5.81956 4.47266 12.2152 4.47266 12.2152 4.47266C12.2152 4.47266 18.6108 4.47266 20.2097 4.91279ZM10.1709 8.58789L15.4894 11.6688L10.1709 14.7498V8.58789Z" fill="white"/>
</g>
<defs>
<clipPath id="clip0_1402_10933">
<rect width="20.4324" height="14.389" fill="white" transform="translate(1.99121 4.47266)"/>
</clipPath>
</defs>
</svg>
