<svg width="86" height="58" viewBox="0 0 86 58" fill="none" xmlns="http://www.w3.org/2000/svg">
<path fill-rule="evenodd" clip-rule="evenodd" d="M86 57.7771H0V33.4443H86V57.7771ZM25.0111 50.472H23.6255V45.6243C23.6255 43.0941 21.8577 41.9354 19.9227 41.9354C18.2266 41.9354 17.0083 42.8104 16.4111 44.2292C15.8855 42.6685 14.4522 41.9354 12.8994 41.9354C11.3944 41.9354 10.2716 42.6212 9.62663 43.7562V42.1482H5.11163V44.4656H6.54496V50.4959H5.11163V52.813H11.6572V50.4959H9.60274V46.7831C9.60274 45.2933 10.2 44.2528 11.6811 44.2528C12.8994 44.2528 13.5205 44.9622 13.5205 46.8067V52.813H18.0355V50.4959H16.6022V46.7831C16.6022 45.2933 17.1994 44.2528 18.6805 44.2528C19.8988 44.2528 20.52 44.9622 20.52 46.8067V52.7894H25.0111V50.472ZM32.1313 41.9354C28.2613 41.9354 26.3502 44.5129 26.3502 47.6343C26.3502 51.0395 28.6435 53.0495 31.964 53.0495C35.404 53.0495 37.8885 50.8976 37.8885 47.4925C37.8885 44.5129 36.0013 41.9354 32.1313 41.9354ZM29.5271 47.4197C29.5271 49.264 30.3871 50.6828 32.0593 50.6828C33.6599 50.6828 34.711 49.4297 34.711 47.3722C34.711 45.2203 33.5405 44.2508 32.0832 44.2508C30.5066 44.2508 29.5271 45.4095 29.5271 47.4197ZM47.5381 48.84L49.9748 49.0764L49.3059 52.8124H39.9176L39.607 51.2047L45.5312 44.465H42.1631L41.6854 46.1206L39.4637 45.8841L39.8459 42.1476H49.282L49.5209 43.7556L43.5487 50.4953H47.0365L47.5381 48.84ZM55.4701 52.8136H52.2451V48.9828H55.4701V52.8136ZM52.2451 45.9784H55.4701V42.1476H52.2451V45.9784ZM60.486 52.7886L65.1444 36.5431H62.1105L57.4521 52.7886H60.486ZM71.4038 36.5431L66.7454 52.7886H63.7116L68.3699 36.5431H71.4038ZM81.6766 50.9922C81.82 50.9922 81.9631 50.9688 82.1305 50.9213L82.2019 52.5529C81.6289 52.8606 80.9361 53.0495 80.2672 53.0495C78.8339 53.0495 78.0455 52.2219 77.9019 50.9213C77.2811 52.009 76.1822 53.0495 74.4381 53.0495C72.8853 53.0495 71.1177 52.2219 71.1177 49.999C71.1177 47.3742 73.6739 46.7594 76.1344 46.7594C76.7316 46.7594 77.3527 46.7831 77.9019 46.854V46.4993C77.9019 45.4115 77.8783 44.1109 76.1344 44.1109C75.4894 44.1109 74.9877 44.1582 74.4861 44.4184L74.1277 45.6243L71.6672 45.3642L72.0492 42.9049C73.9366 42.1482 74.8922 41.9354 76.66 41.9354C78.9769 41.9354 80.9361 43.1178 80.9361 45.5534V50.1646C80.9361 50.7794 81.175 50.9922 81.6766 50.9922Z" fill="#0B0C0F"/>
<path fill-rule="evenodd" clip-rule="evenodd" d="M75.5366 50.8505C74.605 50.8505 74.2705 50.3064 74.2705 49.6207C74.2705 48.462 75.2261 48.1545 76.3249 48.1545C76.8264 48.1545 77.3761 48.2255 77.8777 48.2964C77.8061 50.0699 76.6355 50.8505 75.5366 50.8505Z" fill="#0B0C0F"/>
<path d="M18.574 26.5032H10.4315V23.3312H12.3936V18.1972C12.3936 16.9328 12.1647 16.028 11.7069 15.483C11.2709 14.938 10.6386 14.6655 9.81022 14.6655C8.851 14.6655 8.09888 14.9598 7.55387 15.5484C7.03066 16.137 6.74725 16.911 6.70365 17.8702V23.3312H8.66569V26.5032H0.523212V23.3312H2.48526V7.20974H0.523212V4.00507H6.70365V14.0115C7.68467 12.3111 9.26521 11.4608 11.4453 11.4608C12.8405 11.4608 14.0504 11.875 15.075 12.7035C16.0997 13.5319 16.612 14.8181 16.612 16.5622V23.3312H18.574V26.5032ZM37.673 26.5032H31.3291V24.2468C30.3481 25.9473 28.7675 26.7975 26.5875 26.7975C25.1923 26.7975 23.9823 26.3833 22.9577 25.5549C21.9331 24.7264 21.4208 23.4402 21.4208 21.6962V14.9271H19.4587V11.7551H25.6392V20.0611C25.6392 21.3474 25.8463 22.263 26.2605 22.808C26.6965 23.3312 27.3287 23.5928 28.1571 23.5928C29.1599 23.5928 29.9339 23.2658 30.4789 22.6118C31.0457 21.9578 31.3291 21.1185 31.3291 20.0938V14.9271H28.9419V11.7551H35.5475V23.3312H37.673V26.5032ZM55.461 18.7858C55.461 20.9658 54.8832 22.8516 53.7278 24.443C52.5942 26.0345 50.9155 26.8302 48.6919 26.8302C46.4464 26.8302 44.8659 25.98 43.9503 24.2795C43.9067 24.6501 43.8522 25.0207 43.7868 25.3913C43.7432 25.762 43.6887 26.1326 43.6233 26.5032H39.4049C39.5575 25.7402 39.6883 24.9771 39.7973 24.2141C39.9063 23.4511 39.9608 22.699 39.9608 21.9578V7.20974H37.9988V4.00507H44.1792V14.5674C44.5716 13.7172 45.1602 12.9869 45.945 12.3765C46.7517 11.766 47.8199 11.4608 49.1497 11.4608C51.0028 11.4608 52.5179 12.104 53.6951 13.3902C54.8723 14.6764 55.461 16.4749 55.461 18.7858ZM51.0791 19.1455C51.0791 17.7285 50.7738 16.6494 50.1634 15.9081C49.553 15.1669 48.7464 14.7963 47.7436 14.7963C46.61 14.7963 45.727 15.2105 45.0948 16.0389C44.4844 16.8674 44.1792 17.8266 44.1792 18.9166V19.2763C44.1792 20.4753 44.4735 21.4891 45.0621 22.3175C45.6725 23.1241 46.5337 23.5274 47.6455 23.5274C48.6047 23.5274 49.4113 23.1786 50.0653 22.481C50.7411 21.7616 51.0791 20.6497 51.0791 19.1455ZM70.3653 21.9905C70.3653 23.6255 69.7113 24.8463 68.4033 25.653C67.1171 26.4378 65.4384 26.8302 63.3674 26.8302C62.2992 26.8302 61.22 26.7212 60.13 26.5032C59.0618 26.2634 58.0372 25.8928 57.0561 25.3913L57.6447 21.2711L60.9148 21.6308V23.462C61.3072 23.5928 61.7214 23.68 62.1574 23.7236C62.5935 23.7454 62.9205 23.7563 63.1385 23.7563C63.9451 23.7563 64.6427 23.6255 65.2313 23.3639C65.8199 23.1023 66.1142 22.7099 66.1142 22.1867C66.1142 21.5545 65.6673 21.1403 64.7735 20.944C63.8797 20.7478 62.8442 20.5516 61.6669 20.3554C60.4897 20.1592 59.4542 19.7559 58.5604 19.1455C57.6665 18.5351 57.2196 17.4996 57.2196 16.0389C57.2196 14.2295 57.9173 13.0196 59.3125 12.4092C60.7295 11.7769 62.1902 11.4608 63.6944 11.4608C65.6564 11.4608 67.4986 11.9077 69.2208 12.8016L69.5805 16.5622L66.3104 16.9219L66.0488 14.8617C65.3294 14.6219 64.5555 14.502 63.7271 14.502C63.1821 14.502 62.7134 14.6219 62.321 14.8617C61.9503 15.0797 61.765 15.4285 61.765 15.9081C61.765 16.5404 62.1902 16.9655 63.0404 17.1835C63.9124 17.3797 64.9152 17.5759 66.0488 17.7721C67.2043 17.9683 68.2071 18.3716 69.0573 18.982C69.9293 19.5706 70.3653 20.5734 70.3653 21.9905Z" fill="#0B0C0F"/>
</svg>
