<svg width="375" height="252" viewBox="0 0 375 252" fill="none" xmlns="http://www.w3.org/2000/svg">
<path fill-rule="evenodd" clip-rule="evenodd" d="M375 251.936H-0.000106812V145.833H375V251.936ZM109.06 220.082H103.018V198.944C103.018 187.911 95.3097 182.858 86.8722 182.858C79.4763 182.858 74.1638 186.673 71.5597 192.86C69.268 186.055 63.018 182.858 56.2472 182.858C49.6847 182.858 44.7888 185.849 41.9763 190.798V183.786H22.2888V193.891H28.5388V220.186H22.2888V230.29H50.8305V220.186H41.8722V203.996C41.8722 197.5 44.4763 192.963 50.9347 192.963C56.2472 192.963 58.9555 196.057 58.9555 204.099V230.29H78.643V220.186H72.393V203.996C72.393 197.5 74.9972 192.963 81.4555 192.963C86.768 192.963 89.4763 196.057 89.4763 204.099V230.187H109.06V220.082ZM140.107 182.858C123.232 182.858 114.899 194.098 114.899 207.708C114.899 222.556 124.899 231.321 139.378 231.321C154.378 231.321 165.211 221.938 165.211 207.09C165.211 194.098 156.982 182.858 140.107 182.858ZM128.752 206.772C128.752 214.814 132.502 221.001 139.793 221.001C146.772 221.001 151.356 215.537 151.356 206.565C151.356 197.182 146.252 192.954 139.897 192.954C133.022 192.954 128.752 198.007 128.752 206.772ZM207.288 212.965L217.913 213.996L214.996 230.287H174.059L172.705 223.276L198.537 193.888H183.851L181.767 201.107L172.08 200.076L173.746 183.784H214.892L215.934 190.795L189.892 220.183H205.101L207.288 212.965ZM241.875 230.292H227.813V213.588H241.875V230.292ZM227.813 200.488H241.875V183.784H227.813V200.488ZM263.747 230.183L284.06 159.345H270.83L250.518 230.183H263.747ZM311.354 159.345L291.041 230.183H277.812L298.125 159.345H311.354ZM356.148 222.35C356.773 222.35 357.397 222.248 358.127 222.041L358.439 229.156C355.94 230.497 352.919 231.321 350.002 231.321C343.752 231.321 340.315 227.712 339.689 222.041C336.981 226.784 332.19 231.321 324.585 231.321C317.814 231.321 310.106 227.712 310.106 218.02C310.106 206.574 321.252 203.893 331.981 203.893C334.586 203.893 337.294 203.996 339.689 204.306V202.759C339.689 198.016 339.586 192.345 331.981 192.345C329.169 192.345 326.981 192.551 324.794 193.685L323.231 198.944L312.502 197.81L314.168 187.086C322.398 183.786 326.565 182.858 334.273 182.858C344.376 182.858 352.919 188.014 352.919 198.634V218.741C352.919 221.422 353.961 222.35 356.148 222.35Z" fill="white"/>
<path fill-rule="evenodd" clip-rule="evenodd" d="M329.375 221.733C325.312 221.733 323.854 219.36 323.854 216.37C323.854 211.317 328.021 209.977 332.812 209.977C334.999 209.977 337.396 210.286 339.583 210.596C339.271 218.329 334.166 221.733 329.375 221.733V221.733Z" fill="white"/>
<path d="M80.9912 115.392H45.4862V101.561H54.0417V79.1742C54.0417 73.6608 53.0435 69.7157 51.0473 67.3392C49.1461 64.9627 46.3893 63.7745 42.777 63.7745C38.5944 63.7745 35.3148 65.0578 32.9383 67.6244C30.6568 70.191 29.421 73.5657 29.2309 77.7483V101.561H37.7864V115.392H2.28134V101.561H10.8368V31.2639H2.28134V17.29H29.2309V60.9227C33.5086 53.508 40.4005 49.8006 49.9065 49.8006C55.9904 49.8006 61.2662 51.6068 65.7341 55.2191C70.2019 58.8313 72.4358 64.4399 72.4358 72.0447V101.561H80.9912V115.392ZM164.272 115.392H136.609V105.553C132.332 112.968 125.44 116.676 115.934 116.676C109.85 116.676 104.574 114.869 100.106 111.257C95.6383 107.645 93.4044 102.036 93.4044 94.4314V64.9152H84.849V51.0839H111.799V87.3019C111.799 92.9105 112.702 96.903 114.508 99.2795C116.409 101.561 119.166 102.702 122.778 102.702C127.151 102.702 130.525 101.276 132.902 98.424C135.374 95.5721 136.609 91.9123 136.609 87.4445V64.9152H126.2V51.0839H155.003V101.561H164.272V115.392ZM241.835 81.7409C241.835 91.2469 239.316 99.4696 234.278 106.409C229.335 113.348 222.015 116.818 212.319 116.818C202.528 116.818 195.636 113.111 191.644 105.696C191.454 107.312 191.216 108.928 190.931 110.544C190.741 112.16 190.503 113.776 190.218 115.392H171.824C172.489 112.065 173.059 108.738 173.535 105.411C174.01 102.084 174.248 98.8042 174.248 95.5721V31.2639H165.692V17.29H192.642V63.3467C194.353 59.6394 196.919 56.4548 200.342 53.7932C203.859 51.1315 208.517 49.8006 214.315 49.8006C222.396 49.8006 229.002 52.6049 234.136 58.2135C239.269 63.822 241.835 71.6645 241.835 81.7409ZM222.728 83.3094C222.728 77.1304 221.397 72.425 218.736 69.1929C216.074 65.9609 212.557 64.3448 208.184 64.3448C203.241 64.3448 199.391 66.151 196.634 69.7633C193.973 73.3756 192.642 77.5582 192.642 82.3112V83.8797C192.642 89.108 193.925 93.5283 196.492 97.1406C199.153 100.658 202.908 102.416 207.756 102.416C211.939 102.416 215.456 100.896 218.308 97.8536C221.255 94.7166 222.728 89.8685 222.728 83.3094ZM306.825 95.7147C306.825 102.844 303.974 108.168 298.27 111.685C292.662 115.107 285.342 116.818 276.311 116.818C271.653 116.818 266.948 116.343 262.195 115.392C257.537 114.347 253.069 112.731 248.791 110.544L251.358 92.5777L265.617 94.1462V102.131C267.328 102.702 269.134 103.082 271.035 103.272C272.937 103.367 274.362 103.415 275.313 103.415C278.83 103.415 281.872 102.844 284.439 101.704C287.005 100.563 288.289 98.8517 288.289 96.5703C288.289 93.8135 286.34 92.0074 282.443 91.1518C278.545 90.2963 274.03 89.4408 268.896 88.5852C263.763 87.7297 259.248 85.9711 255.35 83.3094C251.453 80.6477 249.504 76.1323 249.504 69.7633C249.504 61.8733 252.546 56.5974 258.63 53.9357C264.809 51.179 271.178 49.8006 277.737 49.8006C286.292 49.8006 294.325 51.7494 301.835 55.6468L303.403 72.0447L289.144 73.6132L288.004 64.63C284.867 63.5844 281.492 63.0615 277.88 63.0615C275.503 63.0615 273.459 63.5844 271.748 64.63C270.132 65.5806 269.324 67.1016 269.324 69.1929C269.324 71.9497 271.178 73.8033 274.885 74.7539C278.688 75.6095 283.06 76.465 288.004 77.3206C293.042 78.1761 297.415 79.9347 301.122 82.5964C304.924 85.163 306.825 89.5358 306.825 95.7147Z" fill="white"/>
</svg>
